# xmcd
#
# Track frame offsets:
#	150
#	17166
#	31195
#	45266
#	58242
#	73231
#	88870
#
# Disc length: 1359 seconds
#
# Revision: 1
# Processed by: cddbd v1.5.2PL0 Copyright (c) Steve Scherf et al.
# Submitted via: audiograbber 1.83.01
#
DISCID=59054d07
DTITLE=Matt Caldwell - What Cowboys Do
DYEAR=2014
DGENRE=Texas Country
TTITLE0=I'd Like to Know
TTITLE1=What Cowboys Do
TTITLE2=Trying to Fall
TTITLE3=You Ain't Seen Lovin' Yet
TTITLE4=Nowhere Bound
TTITLE5=Drink Another
TTITLE6=I Know Mexico
EXTD=
EXTT0=
EXTT1=
EXTT2=
EXTT3=
EXTT4=
EXTT5=
EXTT6=
PLAYORDER=
